<?xml version="1.0" encoding="UTF-8"?><svg id="Layer_1" xmlns="http://www.w3.org/2000/svg" width="807.49" height="256.19" viewBox="0 0 807.49 256.19"><defs><style>.cls-1{fill:#000;stroke-width:0px;}</style></defs><path class="cls-1" d="M0,26.35h9.56c63.46,0,126.93-.1,190.39.14,7.3.03,12.05-2.29,16.44-8.13C232.96-3.68,225.47.47,252.63.07c8.03-.12,16.06-.02,24.49-.02v229.77c-3.27,0-6.3,0-9.33,0-63.2,0-126.41.13-189.61-.19-8.2-.04-13.48,2.49-18.35,9.05-15.31,20.63-8.57,17.15-35.09,17.44-8.05.09-16.1.01-24.73.01V26.35ZM36.21,218.54c.92.49,1.34.89,1.81.95,17,2.16,32.16.41,40.48-17.69,3.18-6.92,9.29-8.82,16.86-8.77,37.86.25,75.73.19,113.59.04,18.77-.07,32.2-12.86,32.11-30.1-.09-17.23-13.6-29.9-32.3-30.06-14.62-.13-29.25-.17-43.87,0-30.86.35-22.04-3.78-40.19,19.93-3.75,4.9-8.04,6.73-14.02,6.67-21.93-.2-43.87-.08-65.8-.08-2.78,0-5.55,0-8.68,0v59.11ZM240.62,37.71c-.9-.47-1.33-.85-1.8-.92-16.77-2.48-31.63-.7-39.95,17-3.53,7.5-10.05,9.43-18.15,9.37-37.58-.28-75.17-.18-112.75-.06-18.76.06-32.12,12.74-32.11,30.07,0,17.11,13.66,29.92,32.25,30.07,14.61.11,29.23.14,43.85,0,31.08-.3,22.24,3.57,40.24-19.84,3.72-4.83,7.9-6.87,13.94-6.81,21.92.22,43.85.09,65.77.09,2.79,0,5.57,0,8.72,0v-58.98Z"/><path class="cls-1" d="M380.69,82.08c0-3.94-2.92-7.01-9.79-8.62l-17.53-4.24c-16.21-3.94-28.63-12.71-28.63-30.24,0-19.28,16.65-31.11,38.12-31.11,22.79,0,34.76,12.12,39.15,24.25l-19.87,9.64c-1.61-6.28-7.3-13.58-19.28-13.58-10.81,0-15.78,4.97-15.78,10.23,0,4.53,3.65,7.16,9.35,8.47l21.03,5.11c16.8,4.09,25.85,14.46,25.85,28.78,0,16.21-12.56,31.99-42.51,31.99-23.81,0-36.81-13.44-41.19-24.54l18.7-10.81c2.92,8.33,12.71,14.02,23.23,14.02,15.05,0,19.14-4.82,19.14-9.35Z"/><path class="cls-1" d="M412.09,73.17c0-23.37,18.41-39.73,41.05-39.73,17.53,0,30.67,8.47,37.1,23.08l-18.84,9.79c-2.63-7.3-8.91-12.85-18.26-12.85-11.69,0-19.43,8.62-19.43,19.72s7.74,19.72,19.43,19.72c8.47,0,14.75-4.53,17.67-11.25l18.7,9.49c-6.72,13.44-19.72,21.77-36.37,21.77-22.64,0-41.05-15.63-41.05-39.73Z"/><path class="cls-1" d="M504.11,34.75h21.47v12.71l26-14.46v22.5l-26,13.44v42.51h-21.47V34.75Z"/><path class="cls-1" d="M557.43,73.17c0-22.2,16.65-39.73,40.75-39.73,25.56,0,39.15,19.72,39.15,39.73v7.74h-58.28c2.78,9.06,10.22,13.29,19.14,13.29,11.69,0,17.97-6.43,19.87-10.37l16.07,9.64c-2.92,6.57-14.17,19.28-35.93,19.28-26,0-40.75-17.67-40.75-39.59ZM615.27,64.26c-.58-4.53-5.55-12.71-17.38-12.71-7.6,0-15.34,4.09-18.41,12.71h35.79Z"/><path class="cls-1" d="M644.63,73.17c0-22.2,16.65-39.73,40.75-39.73,25.56,0,39.15,19.72,39.15,39.73v7.74h-58.28c2.78,9.06,10.22,13.29,19.14,13.29,11.69,0,17.97-6.43,19.87-10.37l16.07,9.64c-2.92,6.57-14.17,19.28-35.93,19.28-26,0-40.75-17.67-40.75-39.59ZM702.47,64.26c-.58-4.53-5.55-12.71-17.38-12.71-7.6,0-15.34,4.09-18.41,12.71h35.79Z"/><path class="cls-1" d="M738.4,34.75h21.18v9.35c3.36-5.84,10.81-10.66,20.3-10.66,16.94,0,27.61,12.42,27.61,26.58v51.42h-21.18v-43.97c0-8.18-5.99-13.58-13.29-13.58-8.47,0-13.44,5.99-13.44,13.58v43.97h-21.18V34.75Z"/><path class="cls-1" d="M380.69,198.6c0-3.94-2.92-7.01-9.79-8.62l-17.53-4.24c-16.21-3.94-28.63-12.71-28.63-30.24,0-19.28,16.65-31.11,38.12-31.11,22.79,0,34.76,12.12,39.15,24.25l-19.87,9.64c-1.61-6.28-7.3-13.58-19.28-13.58-10.81,0-15.78,4.97-15.78,10.23,0,4.53,3.65,7.16,9.35,8.47l21.03,5.11c16.8,4.09,25.85,14.46,25.85,28.78,0,16.21-12.56,31.99-42.51,31.99-23.81,0-36.81-13.44-41.19-24.54l18.7-10.81c2.92,8.33,12.71,14.02,23.23,14.02,15.05,0,19.14-4.82,19.14-9.35Z"/><path class="cls-1" d="M412.09,189.68c0-22.2,16.65-39.73,40.75-39.73,25.56,0,39.15,19.72,39.15,39.73v7.74h-58.28c2.78,9.06,10.22,13.29,19.14,13.29,11.69,0,17.97-6.43,19.87-10.37l16.07,9.64c-2.92,6.57-14.17,19.28-35.93,19.28-26,0-40.75-17.67-40.75-39.59ZM469.94,180.77c-.58-4.53-5.55-12.71-17.38-12.71-7.6,0-15.34,4.09-18.41,12.71h35.79Z"/><path class="cls-1" d="M500.9,205.46c0-14.32,9.93-23.37,27.02-24.39l19.87-1.17v-.44c0-3.94-4.82-10.37-14.17-10.37-10.22,0-14.46,6.28-15.92,10.37l-16.94-8.76c5.41-11.98,16.21-20.74,33.45-20.74,24.39,0,34.91,17.82,34.91,31.84v46.16h-21.33v-7.6c-3.36,5.4-10.66,9.06-20.74,9.06-14.75,0-26.15-9.5-26.15-23.96ZM530.7,210.72c6.87,0,17.38-4.24,17.38-13.15v-.58l-18.7,1.17c-4.24.29-6.87,2.78-6.87,6.28,0,3.94,3.21,6.28,8.18,6.28Z"/><path class="cls-1" d="M593.06,170.99h-12.27v-19.72h12.71v-17.97h20.74v17.97h18.26v19.72h-18.26v36.52h18.55v20.45h-39.73v-56.97Z"/><path class="cls-1" d="M641.56,208.38l17.53-8.33c2.63,5.55,8.62,10.66,18.11,10.66,8.03,0,11.98-2.34,11.98-5.41,0-2.63-2.34-4.24-6.28-4.97l-15.48-2.92c-11.1-2.04-21.76-8.03-21.76-22.93s14.31-24.54,31.55-24.54c19.13,0,28.92,9.35,32.28,19.72l-17.09,8.18c-1.17-4.97-7.16-9.64-15.63-9.64-5.84,0-9.93,2.19-9.93,5.41s2.78,4.38,6.72,5.11l15.63,2.92c14.17,2.63,21.62,11.54,21.62,22.35,0,14.17-11.69,25.27-34.76,25.27-19.28,0-30.38-9.79-34.47-20.89Z"/></svg>